PathFileType	3	(X/Y/Z)	D:\MSKbioDyn\WearableRobot\20250106\S011\S011_static\S011_walking01.trc
DataRate	CameraRate	NumFrames	NumMarkers	Units	OrigDataRate	OrigDataStartFrame	OrigNumFrames
200.0	200.0	9	39	mm	200.0	1167	1867	
Frame#	Time	LFHD			RFHD			LBHD			RBHD			C7			T10			CLAV			STRN			RBAK			LSHO			LUPA			LELB			LFRM			LWRA			LWRB			LFIN			RSHO			RUPA			RELB			RFRM			RWRA			RWRB			RFIN			LASI			RASI			LPSI			RPSI			LTHI			LKNE			LTIB			LANK			LHEE			LTOE			RTHI			RKNE			RTIB			RANK			RHEE			RTOE			
		X1	Y1	Z1	X2	Y2	Z2	X3	Y3	Z3	X4	Y4	Z4	X5	Y5	Z5	X6	Y6	Z6	X7	Y7	Z7	X8	Y8	Z8	X9	Y9	Z9	X10	Y10	Z10	X11	Y11	Z11	X12	Y12	Z12	X13	Y13	Z13	X14	Y14	Z14	X15	Y15	Z15	X16	Y16	Z16	X17	Y17	Z17	X18	Y18	Z18	X19	Y19	Z19	X20	Y20	Z20	X21	Y21	Z21	X22	Y22	Z22	X23	Y23	Z23	X24	Y24	Z24	X25	Y25	Z25	X26	Y26	Z26	X27	Y27	Z27	X28	Y28	Z28	X29	Y29	Z29	X30	Y30	Z30	X31	Y31	Z31	X32	Y32	Z32	X33	Y33	Z33	X34	Y34	Z34	X35	Y35	Z35	X36	Y36	Z36	X37	Y37	Z37	X38	Y38	Z38	X39	Y39	Z39	
1167	5.825	253.60567	1664.6691	-334.07776	237.45097	1655.8981	-202.25143	136.74527	1593.4169	-346.13931	124.72224	1577.9478	-209.81013	85.635162	1461.6931	-284.91644	40.920895	1155.2313	-271.8009	215.50856	1381.5898	-285.18466	249.94177	1181.9197	-287.34317	20.476919	1275.2915	-219.19542	148.58064	1410.4982	-463.54327	108.79378	1212.7152	-536.68762	139.51073	1058.1991	-542.60474	216.12517	963.73346	-555.37732	264.94034	853.42767	-495.55225	238.54454	851.22821	-559.70428	283.3949	786.72162	-557.06818	138.1996	1402.266	-107.79192	103.78183	1218.9587	-45.148834	97.655121	1045.5437	-50.816772	156.29286	932.30762	-23.739399	212.33026	834.69775	-79.458206	164.24486	823.21704	-26.912279	217.07645	760.16504	-15.163936	232.67059	943.0235	-408.03235	231.48553	950.341	-162.52515	29.979137	953.8476	-325.21478	29.937506	949.64441	-252.60252	220.77751	748.10779	-472.54449	286.90936	507.71057	-450.93564	189.38147	408.96036	-464.88934	40.324146	198.88351	-440.31296	-53.674755	187.46941	-382.11618	139.07144	91.984154	-433.53738	201.90964	731.75977	-126.50304	193.16296	475.81894	-182.72646	137.32365	305.24908	-174.72087	101.02077	85.505417	-230.93304	18.518286	37.489838	-276.45996	246.95447	54.357876	-262.64359
1168	5.83	253.58975	1665.0618	-334.11948	237.33955	1656.2552	-202.38434	136.68524	1593.7734	-346.20023	124.61989	1578.3513	-209.87308	85.488434	1462.142	-284.93182	40.34993	1155.7509	-271.8176	215.6369	1382.0229	-285.23099	249.45906	1182.2771	-287.18762	20.133179	1275.9249	-219.02647	148.32697	1410.7397	-463.60843	107.09636	1212.9766	-536.52557	136.34494	1058.521	-542.16882	211.38315	962.77869	-555.31183	257.87878	851.25928	-496.41541	231.16927	849.86212	-560.20679	274.49747	783.98108	-558.06671	138.15834	1402.7145	-107.8547	105.11339	1219.3628	-44.877018	100.73717	1045.7098	-50.414597	161.26871	933.28461	-23.761175	218.59303	836.64832	-79.781189	170.94199	824.38428	-26.994917	224.50903	762.1037	-15.345587	232.57629	943.93024	-407.90735	230.14845	950.37122	-162.21083	29.348778	954.42896	-325.94199	28.532055	950.12823	-253.37354	221.07774	749.96021	-473.022	290.14603	509.61554	-450.2439	194.46129	408.86127	-464.97433	50.014347	195.33763	-441.04776	-43.793694	181.11012	-383.02551	151.64265	91.180817	-434.34064	198.72368	731.43396	-126.46182	188.97679	475.79651	-182.93027	132.69986	305.31628	-175.18059	95.358208	85.684433	-231.39783	12.978929	37.770546	-276.39639	241.40688	54.237717	-262.43085
1169	5.835	253.52209	1665.3271	-334.28223	237.29305	1656.682	-202.43419	136.61673	1594.1268	-346.29749	124.50888	1578.7096	-209.95245	85.367424	1462.5461	-284.93475	39.868233	1156.1414	-271.76099	215.41505	1382.3077	-285.33542	248.93011	1182.4843	-287.02789	19.80337	1276.4955	-218.81718	148.1154	1411.0981	-463.72412	105.67144	1213.4474	-536.1449	133.10201	1058.8693	-541.80096	205.98055	961.87531	-555.64691	250.69011	849.18988	-497.05533	223.83568	848.50549	-560.71497	265.74899	781.69	-558.85632	138.10767	1403.0598	-107.90733	106.48354	1219.7704	-44.674679	103.82083	1045.9039	-50.013306	166.24475	934.34265	-23.755075	224.62144	838.63861	-80.232224	177.53835	825.62378	-27.17626	232.19965	764.20447	-15.744923	232.28093	944.63025	-407.65659	228.85088	950.41571	-161.88165	28.749405	954.74823	-326.71265	27.762621	950.4964	-254.20927	221.58385	751.53741	-473.42935	293.15765	511.66998	-449.91681	199.50212	408.49936	-465.10843	59.777012	191.52728	-441.55515	-33.562313	174.78006	-383.61719	164.30879	90.382248	-434.91632	197.22993	731.39227	-127.24732	184.78409	475.74405	-183.05038	128.15179	305.48944	-175.23978	90.084618	85.691788	-231.31387	7.2381845	37.83762	-276.40823	235.87108	54.335506	-262.46915
1170	5.84	253.45009	1665.6056	-334.36331	237.22003	1656.9585	-202.52986	136.50481	1594.4358	-346.43085	124.40062	1579.0282	-210.05319	85.297333	1462.9153	-284.95142	39.343323	1156.6093	-271.69305	215.23517	1382.5449	-285.38693	248.39178	1182.7094	-286.92255	19.490578	1277.0273	-218.62753	147.91798	1411.3466	-463.8042	103.721	1213.767	-536.05725	129.89977	1059.1664	-541.44916	201.14148	961.02515	-555.58948	243.66164	847.24463	-497.51782	216.27913	847.27917	-561.21802	256.85904	779.50586	-559.62756	138.10995	1403.568	-107.98586	107.81532	1220.192	-44.40065	107.00195	1046.1219	-49.550655	171.04115	935.38275	-23.712721	230.86288	840.67584	-80.601387	184.15817	826.83496	-27.375341	240.28343	766.66144	-16.30654	232.01274	945.31677	-407.3624	227.55057	950.37109	-161.56178	28.124619	955.24762	-327.52127	27.02499	950.76727	-255.13164	223.56456	752.86304	-473.66907	296.14514	513.58063	-449.45044	204.61052	408.02115	-465.64038	69.607468	187.77669	-442.10025	-23.286896	168.36273	-384.29202	176.98772	89.658424	-435.45953	193.8878	731.35132	-127.01602	180.59866	475.56158	-183.0022	123.07769	305.5303	-175.26593	84.503197	85.953629	-231.29189	1.3824571	37.79047	-276.5961	230.10277	54.121227	-262.32034
1171	5.845	253.37695	1665.824	-334.45416	237.14746	1657.2448	-202.62079	136.44395	1594.6348	-346.53073	124.2822	1579.3501	-210.16531	85.38633	1463.1971	-284.83701	38.785545	1157.0778	-271.76917	214.72356	1382.7035	-285.47491	247.93442	1182.8726	-286.80978	19.16522	1277.556	-218.37654	147.69545	1411.5657	-463.91605	102.02001	1214.0332	-535.82202	126.68791	1059.4626	-541.02307	195.78485	960.12781	-555.90375	236.32118	845.47388	-498.2962	208.95888	846.0603	-561.7677	248.0383	777.45398	-560.41095	138.11252	1403.9292	-108.02242	109.11382	1220.5835	-44.23642	110.03014	1046.2367	-49.172619	176.12135	936.46442	-23.818586	236.86034	842.76685	-81.043633	190.71701	828.12476	-27.662668	248.23499	769.07318	-16.742083	231.71588	945.95844	-407.06769	226.20197	950.40375	-161.3038	27.571543	955.53369	-328.21732	26.124327	951.03424	-255.95421	224.44125	754.62891	-473.61063	298.89581	515.29919	-449.1554	209.58528	407.42126	-465.91226	79.647133	183.95169	-442.55435	-12.960443	161.99055	-384.67728	189.70125	89.023895	-435.95065	191.60042	731.10431	-127.30688	176.44167	475.54526	-183.21149	118.31878	305.71518	-175.51964	79.00985	86.028358	-231.55775	-4.3872843	37.877472	-276.58286	224.44423	53.971943	-262.25882
1172	5.85	253.315	1666.0197	-334.53091	237.05571	1657.4695	-202.70074	136.35533	1594.7891	-346.573	124.1591	1579.6195	-210.25841	85.117172	1463.5759	-284.94241	38.259342	1157.4661	-271.74298	214.82066	1382.9462	-285.60962	247.41132	1182.973	-286.72754	18.868225	1278.0176	-218.12779	147.54549	1411.7631	-464.00275	100.49124	1214.3763	-535.49847	123.45522	1059.7886	-540.75336	190.7691	959.31885	-555.86963	229.16074	843.46906	-498.63794	201.70404	845.05664	-562.03448	239.15398	775.55182	-561.20416	138.1178	1404.2408	-108.11525	110.47823	1220.9132	-43.983288	113.09486	1046.4067	-48.772087	180.98672	937.51495	-23.919744	242.77869	844.9079	-81.549637	197.27336	829.51453	-27.921238	255.79294	771.24316	-17.262571	231.98096	946.6189	-406.92978	224.83595	950.33978	-161.06558	27.011944	955.85956	-329.03592	25.18359	951.33453	-256.81683	225.46008	755.98724	-473.76819	301.31525	516.95343	-449.05951	214.50839	406.80826	-466.22794	89.776367	180.14346	-442.91751	-2.1870618	155.58328	-384.94839	202.49414	88.419205	-436.19333	189.05481	730.99512	-127.51298	172.27841	475.32919	-183.09688	113.44402	305.88867	-175.69643	73.80928	86.309525	-231.63412	-9.9557734	37.951355	-276.69998	218.77014	53.852417	-262.24734
1173	5.855	253.20956	1666.1594	-334.68253	236.91515	1657.683	-202.82574	136.26418	1594.9111	-346.66479	124.06234	1579.824	-210.35207	85.039062	1463.8335	-284.96451	37.723892	1157.7959	-271.82043	214.70992	1383.0925	-285.65161	246.92561	1183.0902	-286.61194	18.511333	1278.4791	-217.89317	147.35095	1411.8857	-464.13516	98.572754	1214.6459	-535.33887	120.24666	1060.0396	-540.28308	185.64363	958.62823	-556.08588	222.05782	842.00537	-499.14359	194.24373	844.15009	-562.5318	230.54327	773.83118	-561.89807	138.13507	1404.5603	-108.18343	111.72354	1221.2145	-43.76125	116.14172	1046.5631	-48.356907	185.87643	938.65887	-23.990797	248.94527	847.11194	-81.950699	203.96216	831.0387	-27.966858	263.28784	773.46002	-17.762009	231.43085	947.0719	-406.67252	223.55861	950.27844	-160.80701	26.429752	956.12848	-329.86786	24.2848	951.57825	-257.67474	225.72404	757.14703	-473.91391	303.80917	518.45868	-448.83218	219.42934	405.99548	-466.51859	100.07861	176.41376	-443.26898	8.7549047	149.39618	-385.57858	215.27222	87.965607	-436.36386	186.04971	730.57227	-127.27184	168.04822	475.20438	-183.22971	108.39631	306.02066	-175.81152	68.344734	86.184517	-232.10828	-15.595397	38.225407	-276.76471	213.26375	53.7938	-262.07126
1174	5.86	253.15535	1666.2993	-334.73895	236.81551	1657.8938	-202.91521	136.15297	1595.0031	-346.79886	123.97015	1579.9724	-210.41624	84.967239	1464.0521	-284.95612	37.146339	1158.1635	-271.85556	214.228	1383.101	-285.72192	246.4528	1183.1406	-286.54385	18.217197	1278.9219	-217.66908	147.20769	1412.0046	-464.22491	96.85688	1214.8781	-535.01038	116.99543	1060.4298	-539.92596	180.62787	957.84973	-555.88007	214.71948	840.25739	-499.689	186.7762	843.0047	-562.73462	221.59283	772.10516	-562.48956	138.17438	1404.7909	-108.26013	113.05733	1221.4954	-43.594791	119.15881	1046.6843	-47.956036	190.72047	939.82111	-24.111925	254.75624	849.29224	-82.464539	210.40863	832.39563	-28.25423	270.76569	775.90051	-18.407305	230.79324	947.39911	-406.19623	222.23512	950.23083	-160.57111	25.90003	956.42114	-330.52658	23.404642	951.82996	-258.48343	227.84663	758.49237	-473.88879	306.14001	519.98737	-448.6333	224.27309	405.05774	-466.80695	110.44296	172.77209	-443.50623	19.734528	142.97144	-386.11383	228.08197	87.560097	-436.38297	184.25894	730.24622	-127.99782	163.89525	475.08881	-183.38362	103.4984	306.25067	-176.05449	62.605904	86.317467	-232.02733	-21.341721	38.297474	-277.10516	207.43901	53.553341	-262.22284
1175	5.865	253.05029	1666.3527	-334.87839	236.73175	1658.0099	-202.97301	136.06891	1595.1038	-346.90039	123.88197	1580.1068	-210.50508	84.924652	1464.2285	-284.96146	36.547619	1158.509	-272.00299	214.39359	1383.198	-285.78992	245.99739	1183.1442	-286.46716	17.891983	1279.365	-217.49831	147.07407	1412.0889	-464.30536	95.234833	1215.1833	-534.76233	113.70702	1060.8003	-539.83417	175.40315	957.28638	-556.4317	207.67215	838.94226	-500.06085	179.4792	842.38855	-563.25049	211.88875	770.40546	-563.33374	138.25935	1405.0099	-108.31855	114.23451	1221.8169	-43.288525	122.18115	1046.8107	-47.602139	195.51289	941.00745	-24.240854	260.57184	851.51617	-83.049202	216.84679	833.98083	-28.656073	278.2518	778.4436	-18.956738	230.56885	947.75098	-405.96353	220.90622	950.09088	-160.43332	25.333164	956.69128	-331.41772	22.460983	952.03668	-259.35052	227.8736	759.52484	-474.00177	308.37442	521.20886	-448.20261	228.97902	404.04816	-467.05045	120.88609	169.02708	-443.61429	30.668217	136.69026	-386.30475	240.85121	87.379372	-436.52954	182.63068	730.30365	-128.32741	159.80748	474.95074	-183.41902	98.450058	306.45657	-176.24783	56.955231	86.512207	-232.26758	-27.008425	38.461029	-277.39523	201.9024	53.660007	-261.96719
